solid OpenSCAD_Model
  facet normal -1 0 0
    outer loop
      vertex 0 0 0
      vertex 0 0 4
      vertex 0 74.5 0
    endloop
  endfacet
  facet normal -1 0 0
    outer loop
      vertex 0 74.5 0
      vertex 0 0 4
      vertex 0 74.5 4
    endloop
  endfacet
  facet normal 0 -1 0
    outer loop
      vertex 0 0 4
      vertex 0 0 0
      vertex 83.3 0 0
    endloop
  endfacet
  facet normal 0 -1 0
    outer loop
      vertex 83.3 0 4
      vertex 0 0 4
      vertex 83.3 0 0
    endloop
  endfacet
  facet normal 0 0 -1
    outer loop
      vertex 0 0 0
      vertex 0 74.5 0
      vertex 83.3 0 0
    endloop
  endfacet
  facet normal 0 0 -1
    outer loop
      vertex 83.3 0 0
      vertex 0 74.5 0
      vertex 83.3 74.5 0
    endloop
  endfacet
  facet normal 0 1 0
    outer loop
      vertex 0 74.5 0
      vertex 0 74.5 4
      vertex 83.3 74.5 0
    endloop
  endfacet
  facet normal 0 1 0
    outer loop
      vertex 83.3 74.5 0
      vertex 0 74.5 4
      vertex 83.3 74.5 4
    endloop
  endfacet
  facet normal 0 0 1
    outer loop
      vertex 3 3 4
      vertex 0 0 4
      vertex 83.3 0 4
    endloop
  endfacet
  facet normal 0 0 1
    outer loop
      vertex 0 74.5 4
      vertex 0 0 4
      vertex 3 3 4
    endloop
  endfacet
  facet normal 0 0 1
    outer loop
      vertex 3 71.5 4
      vertex 80.3 71.5 4
      vertex 0 74.5 4
    endloop
  endfacet
  facet normal 0 0 1
    outer loop
      vertex 0 74.5 4
      vertex 3 3 4
      vertex 3 71.5 4
    endloop
  endfacet
  facet normal 0 0 1
    outer loop
      vertex 83.3 74.5 4
      vertex 80.3 71.5 4
      vertex 83.3 0 4
    endloop
  endfacet
  facet normal 0 0 1
    outer loop
      vertex 83.3 74.5 4
      vertex 0 74.5 4
      vertex 80.3 71.5 4
    endloop
  endfacet
  facet normal 0 0 1
    outer loop
      vertex 80.3 71.5 4
      vertex 80.3 3 4
      vertex 83.3 0 4
    endloop
  endfacet
  facet normal 0 0 1
    outer loop
      vertex 80.3 3 4
      vertex 3 3 4
      vertex 83.3 0 4
    endloop
  endfacet
  facet normal 1 0 0
    outer loop
      vertex 83.3 0 4
      vertex 83.3 0 0
      vertex 83.3 74.5 0
    endloop
  endfacet
  facet normal 1 0 0
    outer loop
      vertex 83.3 74.5 4
      vertex 83.3 0 4
      vertex 83.3 74.5 0
    endloop
  endfacet
  facet normal -1 0 0
    outer loop
      vertex 3 3 4
      vertex 3 3 8
      vertex 3 71.5 4
    endloop
  endfacet
  facet normal -1 0 0
    outer loop
      vertex 3 71.5 4
      vertex 3 3 8
      vertex 3 71.5 8
    endloop
  endfacet
  facet normal 0 -1 0
    outer loop
      vertex 3 3 8
      vertex 3 3 4
      vertex 80.3 3 4
    endloop
  endfacet
  facet normal 0 -1 0
    outer loop
      vertex 80.3 3 8
      vertex 3 3 8
      vertex 80.3 3 4
    endloop
  endfacet
  facet normal 1 0 0
    outer loop
      vertex 80.3 3 8
      vertex 80.3 3 4
      vertex 80.3 71.5 4
    endloop
  endfacet
  facet normal 1 0 0
    outer loop
      vertex 80.3 71.5 8
      vertex 80.3 3 8
      vertex 80.3 71.5 4
    endloop
  endfacet
  facet normal 0 1 0
    outer loop
      vertex 3 71.5 4
      vertex 3 71.5 8
      vertex 80.3 71.5 4
    endloop
  endfacet
  facet normal 0 1 0
    outer loop
      vertex 80.3 71.5 4
      vertex 3 71.5 8
      vertex 80.3 71.5 8
    endloop
  endfacet
  facet normal 0 0 1
    outer loop
      vertex 4 4 8
      vertex 3 3 8
      vertex 80.3 3 8
    endloop
  endfacet
  facet normal 0 0 1
    outer loop
      vertex 3 71.5 8
      vertex 3 3 8
      vertex 4 4 8
    endloop
  endfacet
  facet normal 0 0 1
    outer loop
      vertex 4 70.5 8
      vertex 79.3 70.5 8
      vertex 3 71.5 8
    endloop
  endfacet
  facet normal 0 0 1
    outer loop
      vertex 3 71.5 8
      vertex 4 4 8
      vertex 4 70.5 8
    endloop
  endfacet
  facet normal 0 0 1
    outer loop
      vertex 80.3 71.5 8
      vertex 79.3 70.5 8
      vertex 80.3 3 8
    endloop
  endfacet
  facet normal 0 0 1
    outer loop
      vertex 80.3 71.5 8
      vertex 3 71.5 8
      vertex 79.3 70.5 8
    endloop
  endfacet
  facet normal 0 0 1
    outer loop
      vertex 79.3 70.5 8
      vertex 79.3 4 8
      vertex 80.3 3 8
    endloop
  endfacet
  facet normal 0 0 1
    outer loop
      vertex 79.3 4 8
      vertex 4 4 8
      vertex 80.3 3 8
    endloop
  endfacet
  facet normal 1 0 0
    outer loop
      vertex 4 70.5 4
      vertex 4 70.5 8
      vertex 4 4 8
    endloop
  endfacet
  facet normal 1 0 0
    outer loop
      vertex 4 4 4
      vertex 4 70.5 4
      vertex 4 4 8
    endloop
  endfacet
  facet normal 0 1 0
    outer loop
      vertex 79.3 4 8
      vertex 79.3 4 4
      vertex 4 4 8
    endloop
  endfacet
  facet normal 0 1 0
    outer loop
      vertex 4 4 8
      vertex 79.3 4 4
      vertex 4 4 4
    endloop
  endfacet
  facet normal -1 0 0
    outer loop
      vertex 79.3 70.5 8
      vertex 79.3 70.5 4
      vertex 79.3 4 8
    endloop
  endfacet
  facet normal -1 0 0
    outer loop
      vertex 79.3 4 8
      vertex 79.3 70.5 4
      vertex 79.3 4 4
    endloop
  endfacet
  facet normal 0 -1 0
    outer loop
      vertex 79.3 70.5 4
      vertex 79.3 70.5 8
      vertex 4 70.5 8
    endloop
  endfacet
  facet normal 0 -1 0
    outer loop
      vertex 4 70.5 4
      vertex 79.3 70.5 4
      vertex 4 70.5 8
    endloop
  endfacet
  facet normal 0 0 1
    outer loop
      vertex 4 70.5 4
      vertex 4 4 4
      vertex 79.3 4 4
    endloop
  endfacet
  facet normal 0 0 1
    outer loop
      vertex 79.3 70.5 4
      vertex 4 70.5 4
      vertex 79.3 4 4
    endloop
  endfacet
endsolid OpenSCAD_Model
