solid OpenSCAD_Model
  facet normal -1 0 0
    outer loop
      vertex 0 0 0
      vertex 0 0 8
      vertex 0 74.5 0
    endloop
  endfacet
  facet normal -1 0 0
    outer loop
      vertex 0 74.5 0
      vertex 0 0 8
      vertex 0 74.5 8
    endloop
  endfacet
  facet normal 0 -1 0
    outer loop
      vertex 0 0 8
      vertex 0 0 0
      vertex 83.3 0 0
    endloop
  endfacet
  facet normal 0 -1 0
    outer loop
      vertex 83.3 0 8
      vertex 0 0 8
      vertex 83.3 0 0
    endloop
  endfacet
  facet normal 0 0 -1
    outer loop
      vertex 80.3 3 0
      vertex 83.3 0 0
      vertex 3 3 0
    endloop
  endfacet
  facet normal 0 0 -1
    outer loop
      vertex 80.3 71.5 0
      vertex 0 74.5 0
      vertex 83.3 74.5 0
    endloop
  endfacet
  facet normal 0 0 -1
    outer loop
      vertex 0 0 0
      vertex 0 74.5 0
      vertex 3 71.5 0
    endloop
  endfacet
  facet normal 0 0 -1
    outer loop
      vertex 0 0 0
      vertex 3 71.5 0
      vertex 3 3 0
    endloop
  endfacet
  facet normal 0 0 -1
    outer loop
      vertex 0 0 0
      vertex 3 3 0
      vertex 83.3 0 0
    endloop
  endfacet
  facet normal 0 0 -1
    outer loop
      vertex 83.3 0 0
      vertex 80.3 3 0
      vertex 83.3 74.5 0
    endloop
  endfacet
  facet normal 0 0 -1
    outer loop
      vertex 80.3 3 0
      vertex 80.3 71.5 0
      vertex 83.3 74.5 0
    endloop
  endfacet
  facet normal 0 0 -1
    outer loop
      vertex 3 71.5 0
      vertex 0 74.5 0
      vertex 80.3 71.5 0
    endloop
  endfacet
  facet normal 0 1 0
    outer loop
      vertex 0 74.5 0
      vertex 0 74.5 8
      vertex 83.3 74.5 0
    endloop
  endfacet
  facet normal 0 1 0
    outer loop
      vertex 83.3 74.5 0
      vertex 0 74.5 8
      vertex 83.3 74.5 8
    endloop
  endfacet
  facet normal 0 0 1
    outer loop
      vertex 2 2 8
      vertex 0 0 8
      vertex 83.3 0 8
    endloop
  endfacet
  facet normal 0 0 1
    outer loop
      vertex 0 74.5 8
      vertex 0 0 8
      vertex 2 2 8
    endloop
  endfacet
  facet normal 0 0 1
    outer loop
      vertex 2 72.5 8
      vertex 81.3 72.5 8
      vertex 0 74.5 8
    endloop
  endfacet
  facet normal 0 0 1
    outer loop
      vertex 0 74.5 8
      vertex 2 2 8
      vertex 2 72.5 8
    endloop
  endfacet
  facet normal 0 0 1
    outer loop
      vertex 83.3 74.5 8
      vertex 81.3 72.5 8
      vertex 83.3 0 8
    endloop
  endfacet
  facet normal 0 0 1
    outer loop
      vertex 83.3 74.5 8
      vertex 0 74.5 8
      vertex 81.3 72.5 8
    endloop
  endfacet
  facet normal 0 0 1
    outer loop
      vertex 81.3 72.5 8
      vertex 81.3 2 8
      vertex 83.3 0 8
    endloop
  endfacet
  facet normal 0 0 1
    outer loop
      vertex 81.3 2 8
      vertex 2 2 8
      vertex 83.3 0 8
    endloop
  endfacet
  facet normal 1 0 0
    outer loop
      vertex 83.3 0 8
      vertex 83.3 0 0
      vertex 83.3 74.5 0
    endloop
  endfacet
  facet normal 1 0 0
    outer loop
      vertex 83.3 74.5 8
      vertex 83.3 0 8
      vertex 83.3 74.5 0
    endloop
  endfacet
  facet normal 1 0 0
    outer loop
      vertex 3 71.5 0
      vertex 3 71.5 12
      vertex 3 3 12
    endloop
  endfacet
  facet normal 1 0 0
    outer loop
      vertex 3 3 0
      vertex 3 71.5 0
      vertex 3 3 12
    endloop
  endfacet
  facet normal 0 -1 0
    outer loop
      vertex 80.3 71.5 0
      vertex 80.3 71.5 12
      vertex 3 71.5 12
    endloop
  endfacet
  facet normal 0 -1 0
    outer loop
      vertex 3 71.5 0
      vertex 80.3 71.5 0
      vertex 3 71.5 12
    endloop
  endfacet
  facet normal -1 0 0
    outer loop
      vertex 80.3 71.5 12
      vertex 80.3 71.5 0
      vertex 80.3 3 12
    endloop
  endfacet
  facet normal -1 0 0
    outer loop
      vertex 80.3 3 12
      vertex 80.3 71.5 0
      vertex 80.3 3 0
    endloop
  endfacet
  facet normal 0 1 0
    outer loop
      vertex 80.3 3 12
      vertex 80.3 3 0
      vertex 3 3 12
    endloop
  endfacet
  facet normal 0 1 0
    outer loop
      vertex 3 3 12
      vertex 80.3 3 0
      vertex 3 3 0
    endloop
  endfacet
  facet normal -1 0 0
    outer loop
      vertex 2 2 8
      vertex 2 2 12
      vertex 2 72.5 8
    endloop
  endfacet
  facet normal -1 0 0
    outer loop
      vertex 2 72.5 8
      vertex 2 2 12
      vertex 2 72.5 12
    endloop
  endfacet
  facet normal 0 -1 0
    outer loop
      vertex 2 2 12
      vertex 2 2 8
      vertex 81.3 2 8
    endloop
  endfacet
  facet normal 0 -1 0
    outer loop
      vertex 81.3 2 12
      vertex 2 2 12
      vertex 81.3 2 8
    endloop
  endfacet
  facet normal 1 0 0
    outer loop
      vertex 81.3 2 12
      vertex 81.3 2 8
      vertex 81.3 72.5 8
    endloop
  endfacet
  facet normal 1 0 0
    outer loop
      vertex 81.3 72.5 12
      vertex 81.3 2 12
      vertex 81.3 72.5 8
    endloop
  endfacet
  facet normal 0 1 0
    outer loop
      vertex 81.3 72.5 12
      vertex 81.3 72.5 8
      vertex 2 72.5 12
    endloop
  endfacet
  facet normal 0 1 0
    outer loop
      vertex 2 72.5 12
      vertex 81.3 72.5 8
      vertex 2 72.5 8
    endloop
  endfacet
  facet normal 0 0 1
    outer loop
      vertex 3 3 12
      vertex 2 2 12
      vertex 81.3 2 12
    endloop
  endfacet
  facet normal 0 0 1
    outer loop
      vertex 2 72.5 12
      vertex 2 2 12
      vertex 3 3 12
    endloop
  endfacet
  facet normal 0 0 1
    outer loop
      vertex 3 71.5 12
      vertex 80.3 71.5 12
      vertex 2 72.5 12
    endloop
  endfacet
  facet normal 0 0 1
    outer loop
      vertex 2 72.5 12
      vertex 3 3 12
      vertex 3 71.5 12
    endloop
  endfacet
  facet normal 0 0 1
    outer loop
      vertex 81.3 72.5 12
      vertex 80.3 71.5 12
      vertex 81.3 2 12
    endloop
  endfacet
  facet normal 0 0 1
    outer loop
      vertex 81.3 72.5 12
      vertex 2 72.5 12
      vertex 80.3 71.5 12
    endloop
  endfacet
  facet normal 0 0 1
    outer loop
      vertex 80.3 71.5 12
      vertex 80.3 3 12
      vertex 81.3 2 12
    endloop
  endfacet
  facet normal 0 0 1
    outer loop
      vertex 80.3 3 12
      vertex 3 3 12
      vertex 81.3 2 12
    endloop
  endfacet
endsolid OpenSCAD_Model
