solid OpenSCAD_Model
  facet normal -1 0 0
    outer loop
      vertex 0 0 0
      vertex 0 0 36
      vertex 0 74.5 0
    endloop
  endfacet
  facet normal -1 0 0
    outer loop
      vertex 0 32.75 26.3
      vertex 0 0 36
      vertex 0 74.5 36
    endloop
  endfacet
  facet normal -1 0 0
    outer loop
      vertex 0 32.75 21.3
      vertex 0 0 36
      vertex 0 32.75 26.3
    endloop
  endfacet
  facet normal -1 0 0
    outer loop
      vertex 0 36.75 26.3
      vertex 0 32.75 26.3
      vertex 0 74.5 36
    endloop
  endfacet
  facet normal -1 0 0
    outer loop
      vertex 0 74.5 0
      vertex 0 0 36
      vertex 0 32.75 21.3
    endloop
  endfacet
  facet normal -1 0 0
    outer loop
      vertex 0 74.5 0
      vertex 0 32.75 21.3
      vertex 0 36.75 21.3
    endloop
  endfacet
  facet normal -1 0 0
    outer loop
      vertex 0 37.75 21.3
      vertex 0 36.75 26.3
      vertex 0 37.75 26.3
    endloop
  endfacet
  facet normal -1 0 0
    outer loop
      vertex 0 37.75 26.3
      vertex 0 36.75 26.3
      vertex 0 74.5 36
    endloop
  endfacet
  facet normal -1 0 0
    outer loop
      vertex 0 41.75 26.3
      vertex 0 37.75 26.3
      vertex 0 74.5 36
    endloop
  endfacet
  facet normal -1 0 0
    outer loop
      vertex 0 74.5 0
      vertex 0 36.75 21.3
      vertex 0 37.75 21.3
    endloop
  endfacet
  facet normal -1 0 0
    outer loop
      vertex 0 74.5 0
      vertex 0 41.75 26.3
      vertex 0 74.5 36
    endloop
  endfacet
  facet normal -1 0 0
    outer loop
      vertex 0 41.75 21.3
      vertex 0 74.5 0
      vertex 0 37.75 21.3
    endloop
  endfacet
  facet normal -1 0 0
    outer loop
      vertex 0 41.75 26.3
      vertex 0 74.5 0
      vertex 0 41.75 21.3
    endloop
  endfacet
  facet normal -1 0 0
    outer loop
      vertex 0 36.75 26.3
      vertex 0 37.75 21.3
      vertex 0 36.75 21.3
    endloop
  endfacet
  facet normal 0 -1 0
    outer loop
      vertex 0 0 36
      vertex 0 0 0
      vertex 83.3 0 0
    endloop
  endfacet
  facet normal 0 -1 0
    outer loop
      vertex 83.3 0 36
      vertex 0 0 36
      vertex 83.3 0 0
    endloop
  endfacet
  facet normal 0 0 -1
    outer loop
      vertex 0 0 0
      vertex 0 74.5 0
      vertex 83.3 0 0
    endloop
  endfacet
  facet normal 0 0 -1
    outer loop
      vertex 83.3 0 0
      vertex 0 74.5 0
      vertex 83.3 74.5 0
    endloop
  endfacet
  facet normal 0 1 0
    outer loop
      vertex 0 74.5 0
      vertex 0 74.5 36
      vertex 83.3 74.5 0
    endloop
  endfacet
  facet normal 0 1 0
    outer loop
      vertex 83.3 74.5 0
      vertex 0 74.5 36
      vertex 83.3 74.5 36
    endloop
  endfacet
  facet normal 0 0 1
    outer loop
      vertex 2 2 36
      vertex 0 0 36
      vertex 83.3 0 36
    endloop
  endfacet
  facet normal 0 0 1
    outer loop
      vertex 0 74.5 36
      vertex 0 0 36
      vertex 2 2 36
    endloop
  endfacet
  facet normal 0 0 1
    outer loop
      vertex 2 72.5 36
      vertex 81.3 72.5 36
      vertex 0 74.5 36
    endloop
  endfacet
  facet normal 0 0 1
    outer loop
      vertex 0 74.5 36
      vertex 2 2 36
      vertex 2 72.5 36
    endloop
  endfacet
  facet normal 0 0 1
    outer loop
      vertex 83.3 74.5 36
      vertex 81.3 72.5 36
      vertex 83.3 0 36
    endloop
  endfacet
  facet normal 0 0 1
    outer loop
      vertex 83.3 74.5 36
      vertex 0 74.5 36
      vertex 81.3 72.5 36
    endloop
  endfacet
  facet normal 0 0 1
    outer loop
      vertex 81.3 72.5 36
      vertex 81.3 2 36
      vertex 83.3 0 36
    endloop
  endfacet
  facet normal 0 0 1
    outer loop
      vertex 81.3 2 36
      vertex 2 2 36
      vertex 83.3 0 36
    endloop
  endfacet
  facet normal 0 0 -1
    outer loop
      vertex 2 36.75 26.3
      vertex 2 32.75 26.3
      vertex 0 36.75 26.3
    endloop
  endfacet
  facet normal 0 0 -1
    outer loop
      vertex 0 36.75 26.3
      vertex 2 32.75 26.3
      vertex 0 32.75 26.3
    endloop
  endfacet
  facet normal 0 1 0
    outer loop
      vertex 2 32.75 26.3
      vertex 2 32.75 21.3
      vertex 0 32.75 26.3
    endloop
  endfacet
  facet normal 0 1 0
    outer loop
      vertex 0 32.75 26.3
      vertex 2 32.75 21.3
      vertex 0 32.75 21.3
    endloop
  endfacet
  facet normal 0 -1 0
    outer loop
      vertex 2 36.75 21.3
      vertex 2 36.75 26.3
      vertex 0 36.75 26.3
    endloop
  endfacet
  facet normal 0 -1 0
    outer loop
      vertex 0 36.75 21.3
      vertex 2 36.75 21.3
      vertex 0 36.75 26.3
    endloop
  endfacet
  facet normal 0 0 1
    outer loop
      vertex 2 32.75 21.3
      vertex 2 36.75 21.3
      vertex 0 36.75 21.3
    endloop
  endfacet
  facet normal 0 0 1
    outer loop
      vertex 0 32.75 21.3
      vertex 2 32.75 21.3
      vertex 0 36.75 21.3
    endloop
  endfacet
  facet normal 0 0 -1
    outer loop
      vertex 2 41.75 26.3
      vertex 2 37.75 26.3
      vertex 0 41.75 26.3
    endloop
  endfacet
  facet normal 0 0 -1
    outer loop
      vertex 0 41.75 26.3
      vertex 2 37.75 26.3
      vertex 0 37.75 26.3
    endloop
  endfacet
  facet normal 0 1 0
    outer loop
      vertex 2 37.75 26.3
      vertex 2 37.75 21.3
      vertex 0 37.75 26.3
    endloop
  endfacet
  facet normal 0 1 0
    outer loop
      vertex 0 37.75 26.3
      vertex 2 37.75 21.3
      vertex 0 37.75 21.3
    endloop
  endfacet
  facet normal 0 -1 0
    outer loop
      vertex 2 41.75 21.3
      vertex 2 41.75 26.3
      vertex 0 41.75 26.3
    endloop
  endfacet
  facet normal 0 -1 0
    outer loop
      vertex 0 41.75 21.3
      vertex 2 41.75 21.3
      vertex 0 41.75 26.3
    endloop
  endfacet
  facet normal 0 0 1
    outer loop
      vertex 2 37.75 21.3
      vertex 2 41.75 21.3
      vertex 0 41.75 21.3
    endloop
  endfacet
  facet normal 0 0 1
    outer loop
      vertex 0 37.75 21.3
      vertex 2 37.75 21.3
      vertex 0 41.75 21.3
    endloop
  endfacet
  facet normal 1 0 0
    outer loop
      vertex 83.3 0 36
      vertex 83.3 0 0
      vertex 83.3 74.5 0
    endloop
  endfacet
  facet normal 1 0 0
    outer loop
      vertex 83.3 74.5 36
      vertex 83.3 0 36
      vertex 83.3 74.5 0
    endloop
  endfacet
  facet normal 1 0 0
    outer loop
      vertex 2 7 8
      vertex 2 7 4
      vertex 2 67.5 4
    endloop
  endfacet
  facet normal 1 0 0
    outer loop
      vertex 2 41.75 21.3
      vertex 2 7 8
      vertex 2 67.5 8
    endloop
  endfacet
  facet normal 1 0 0
    outer loop
      vertex 2 67.5 8
      vertex 2 7 8
      vertex 2 67.5 4
    endloop
  endfacet
  facet normal 1 0 0
    outer loop
      vertex 2 72.5 36
      vertex 2 67.5 8
      vertex 2 72.5 8
    endloop
  endfacet
  facet normal 1 0 0
    outer loop
      vertex 2 32.75 21.3
      vertex 2 32.75 26.3
      vertex 2 7 8
    endloop
  endfacet
  facet normal 1 0 0
    outer loop
      vertex 2 2 36
      vertex 2 32.75 26.3
      vertex 2 72.5 36
    endloop
  endfacet
  facet normal 1 0 0
    outer loop
      vertex 2 2 36
      vertex 2 7 8
      vertex 2 32.75 26.3
    endloop
  endfacet
  facet normal 1 0 0
    outer loop
      vertex 2 32.75 26.3
      vertex 2 36.75 26.3
      vertex 2 72.5 36
    endloop
  endfacet
  facet normal 1 0 0
    outer loop
      vertex 2 32.75 21.3
      vertex 2 7 8
      vertex 2 36.75 21.3
    endloop
  endfacet
  facet normal 1 0 0
    outer loop
      vertex 2 36.75 26.3
      vertex 2 37.75 26.3
      vertex 2 72.5 36
    endloop
  endfacet
  facet normal 1 0 0
    outer loop
      vertex 2 36.75 26.3
      vertex 2 36.75 21.3
      vertex 2 37.75 26.3
    endloop
  endfacet
  facet normal 1 0 0
    outer loop
      vertex 2 37.75 26.3
      vertex 2 41.75 26.3
      vertex 2 72.5 36
    endloop
  endfacet
  facet normal 1 0 0
    outer loop
      vertex 2 41.75 21.3
      vertex 2 37.75 21.3
      vertex 2 7 8
    endloop
  endfacet
  facet normal 1 0 0
    outer loop
      vertex 2 72.5 36
      vertex 2 41.75 21.3
      vertex 2 67.5 8
    endloop
  endfacet
  facet normal 1 0 0
    outer loop
      vertex 2 41.75 26.3
      vertex 2 41.75 21.3
      vertex 2 72.5 36
    endloop
  endfacet
  facet normal 1 0 0
    outer loop
      vertex 2 36.75 21.3
      vertex 2 7 8
      vertex 2 37.75 21.3
    endloop
  endfacet
  facet normal 1 0 0
    outer loop
      vertex 2 2 8
      vertex 2 7 8
      vertex 2 2 36
    endloop
  endfacet
  facet normal 1 0 0
    outer loop
      vertex 2 37.75 21.3
      vertex 2 37.75 26.3
      vertex 2 36.75 21.3
    endloop
  endfacet
  facet normal 0 1 0
    outer loop
      vertex 81.3 2 36
      vertex 81.3 2 8
      vertex 2 2 36
    endloop
  endfacet
  facet normal 0 1 0
    outer loop
      vertex 2 2 36
      vertex 81.3 2 8
      vertex 76.3 2 8
    endloop
  endfacet
  facet normal 0 1 0
    outer loop
      vertex 2 2 36
      vertex 76.3 2 8
      vertex 76.3 2 4
    endloop
  endfacet
  facet normal 0 1 0
    outer loop
      vertex 7 2 8
      vertex 76.3 2 4
      vertex 7 2 4
    endloop
  endfacet
  facet normal 0 1 0
    outer loop
      vertex 2 2 36
      vertex 76.3 2 4
      vertex 7 2 8
    endloop
  endfacet
  facet normal 0 1 0
    outer loop
      vertex 2 2 8
      vertex 2 2 36
      vertex 7 2 8
    endloop
  endfacet
  facet normal -1 0 0
    outer loop
      vertex 81.3 72.5 36
      vertex 81.3 72.5 8
      vertex 81.3 2 36
    endloop
  endfacet
  facet normal -1 0 0
    outer loop
      vertex 81.3 2 36
      vertex 81.3 72.5 8
      vertex 81.3 67.5 8
    endloop
  endfacet
  facet normal -1 0 0
    outer loop
      vertex 81.3 2 36
      vertex 81.3 67.5 8
      vertex 81.3 67.5 4
    endloop
  endfacet
  facet normal -1 0 0
    outer loop
      vertex 81.3 7 8
      vertex 81.3 67.5 4
      vertex 81.3 7 4
    endloop
  endfacet
  facet normal -1 0 0
    outer loop
      vertex 81.3 2 36
      vertex 81.3 67.5 4
      vertex 81.3 7 8
    endloop
  endfacet
  facet normal -1 0 0
    outer loop
      vertex 81.3 2 8
      vertex 81.3 2 36
      vertex 81.3 7 8
    endloop
  endfacet
  facet normal 0 -1 0
    outer loop
      vertex 7 72.5 8
      vertex 7 72.5 4
      vertex 76.3 72.5 4
    endloop
  endfacet
  facet normal 0 -1 0
    outer loop
      vertex 81.3 72.5 36
      vertex 7 72.5 8
      vertex 76.3 72.5 8
    endloop
  endfacet
  facet normal 0 -1 0
    outer loop
      vertex 76.3 72.5 8
      vertex 7 72.5 8
      vertex 76.3 72.5 4
    endloop
  endfacet
  facet normal 0 -1 0
    outer loop
      vertex 81.3 72.5 36
      vertex 76.3 72.5 8
      vertex 81.3 72.5 8
    endloop
  endfacet
  facet normal 0 -1 0
    outer loop
      vertex 2 72.5 36
      vertex 7 72.5 8
      vertex 81.3 72.5 36
    endloop
  endfacet
  facet normal 0 -1 0
    outer loop
      vertex 2 72.5 8
      vertex 7 72.5 8
      vertex 2 72.5 36
    endloop
  endfacet
  facet normal 0 1 0
    outer loop
      vertex 2 7 4
      vertex 2 7 8
      vertex 7 7 4
    endloop
  endfacet
  facet normal 0 1 0
    outer loop
      vertex 7 7 4
      vertex 2 7 8
      vertex 7 7 8
    endloop
  endfacet
  facet normal 0 0 1
    outer loop
      vertex 2 7 8
      vertex 2 2 8
      vertex 7 2 8
    endloop
  endfacet
  facet normal 0 0 1
    outer loop
      vertex 7 7 8
      vertex 2 7 8
      vertex 7 2 8
    endloop
  endfacet
  facet normal 0 0 1
    outer loop
      vertex 2 72.5 8
      vertex 2 67.5 8
      vertex 7 67.5 8
    endloop
  endfacet
  facet normal 0 0 1
    outer loop
      vertex 7 72.5 8
      vertex 2 72.5 8
      vertex 7 67.5 8
    endloop
  endfacet
  facet normal 0 -1 0
    outer loop
      vertex 2 67.5 8
      vertex 2 67.5 4
      vertex 7 67.5 4
    endloop
  endfacet
  facet normal 0 -1 0
    outer loop
      vertex 7 67.5 8
      vertex 2 67.5 8
      vertex 7 67.5 4
    endloop
  endfacet
  facet normal 0 0 1
    outer loop
      vertex 7 7 4
      vertex 7 2 4
      vertex 76.3 2 4
    endloop
  endfacet
  facet normal 0 0 1
    outer loop
      vertex 81.3 67.5 4
      vertex 7 7 4
      vertex 76.3 7 4
    endloop
  endfacet
  facet normal 0 0 1
    outer loop
      vertex 76.3 7 4
      vertex 7 7 4
      vertex 76.3 2 4
    endloop
  endfacet
  facet normal 0 0 1
    outer loop
      vertex 81.3 67.5 4
      vertex 76.3 7 4
      vertex 81.3 7 4
    endloop
  endfacet
  facet normal 0 0 1
    outer loop
      vertex 76.3 67.5 4
      vertex 7 7 4
      vertex 81.3 67.5 4
    endloop
  endfacet
  facet normal 0 0 1
    outer loop
      vertex 76.3 72.5 4
      vertex 7 7 4
      vertex 76.3 67.5 4
    endloop
  endfacet
  facet normal 0 0 1
    outer loop
      vertex 7 67.5 4
      vertex 7 7 4
      vertex 76.3 72.5 4
    endloop
  endfacet
  facet normal 0 0 1
    outer loop
      vertex 2 67.5 4
      vertex 7 7 4
      vertex 7 67.5 4
    endloop
  endfacet
  facet normal 0 0 1
    outer loop
      vertex 7 72.5 4
      vertex 7 67.5 4
      vertex 76.3 72.5 4
    endloop
  endfacet
  facet normal 0 0 1
    outer loop
      vertex 2 7 4
      vertex 7 7 4
      vertex 2 67.5 4
    endloop
  endfacet
  facet normal 1 0 0
    outer loop
      vertex 7 2 8
      vertex 7 2 4
      vertex 7 7 4
    endloop
  endfacet
  facet normal 1 0 0
    outer loop
      vertex 7 7 8
      vertex 7 2 8
      vertex 7 7 4
    endloop
  endfacet
  facet normal -1 0 0
    outer loop
      vertex 76.3 2 4
      vertex 76.3 2 8
      vertex 76.3 7 4
    endloop
  endfacet
  facet normal -1 0 0
    outer loop
      vertex 76.3 7 4
      vertex 76.3 2 8
      vertex 76.3 7 8
    endloop
  endfacet
  facet normal 0 0 1
    outer loop
      vertex 76.3 7 8
      vertex 76.3 2 8
      vertex 81.3 2 8
    endloop
  endfacet
  facet normal 0 0 1
    outer loop
      vertex 81.3 7 8
      vertex 76.3 7 8
      vertex 81.3 2 8
    endloop
  endfacet
  facet normal 0 1 0
    outer loop
      vertex 76.3 7 4
      vertex 76.3 7 8
      vertex 81.3 7 4
    endloop
  endfacet
  facet normal 0 1 0
    outer loop
      vertex 81.3 7 4
      vertex 76.3 7 8
      vertex 81.3 7 8
    endloop
  endfacet
  facet normal 0 -1 0
    outer loop
      vertex 76.3 67.5 8
      vertex 76.3 67.5 4
      vertex 81.3 67.5 4
    endloop
  endfacet
  facet normal 0 -1 0
    outer loop
      vertex 81.3 67.5 8
      vertex 76.3 67.5 8
      vertex 81.3 67.5 4
    endloop
  endfacet
  facet normal 0 0 1
    outer loop
      vertex 76.3 72.5 8
      vertex 76.3 67.5 8
      vertex 81.3 67.5 8
    endloop
  endfacet
  facet normal 0 0 1
    outer loop
      vertex 81.3 72.5 8
      vertex 76.3 72.5 8
      vertex 81.3 67.5 8
    endloop
  endfacet
  facet normal 1 0 0
    outer loop
      vertex 7 67.5 8
      vertex 7 67.5 4
      vertex 7 72.5 4
    endloop
  endfacet
  facet normal 1 0 0
    outer loop
      vertex 7 72.5 8
      vertex 7 67.5 8
      vertex 7 72.5 4
    endloop
  endfacet
  facet normal -1 0 0
    outer loop
      vertex 76.3 67.5 4
      vertex 76.3 67.5 8
      vertex 76.3 72.5 4
    endloop
  endfacet
  facet normal -1 0 0
    outer loop
      vertex 76.3 72.5 4
      vertex 76.3 67.5 8
      vertex 76.3 72.5 8
    endloop
  endfacet
endsolid OpenSCAD_Model
