solid OpenSCAD_Model
  facet normal -1 0 0
    outer loop
      vertex 0 0 0
      vertex 0 0 12
      vertex 0 76.5 0
    endloop
  endfacet
  facet normal -1 0 0
    outer loop
      vertex 0 76.5 0
      vertex 0 0 12
      vertex 0 76.5 12
    endloop
  endfacet
  facet normal 0 -1 0
    outer loop
      vertex 0 0 12
      vertex 0 0 0
      vertex 85.3 0 0
    endloop
  endfacet
  facet normal 0 -1 0
    outer loop
      vertex 85.3 0 12
      vertex 0 0 12
      vertex 85.3 0 0
    endloop
  endfacet
  facet normal 0 0 -1
    outer loop
      vertex 80.8 4.5 0
      vertex 85.3 0 0
      vertex 4.5 4.5 0
    endloop
  endfacet
  facet normal 0 0 -1
    outer loop
      vertex 80.8 72 0
      vertex 0 76.5 0
      vertex 85.3 76.5 0
    endloop
  endfacet
  facet normal 0 0 -1
    outer loop
      vertex 0 0 0
      vertex 0 76.5 0
      vertex 4.5 72 0
    endloop
  endfacet
  facet normal 0 0 -1
    outer loop
      vertex 0 0 0
      vertex 4.5 72 0
      vertex 4.5 4.5 0
    endloop
  endfacet
  facet normal 0 0 -1
    outer loop
      vertex 0 0 0
      vertex 4.5 4.5 0
      vertex 85.3 0 0
    endloop
  endfacet
  facet normal 0 0 -1
    outer loop
      vertex 85.3 0 0
      vertex 80.8 4.5 0
      vertex 85.3 76.5 0
    endloop
  endfacet
  facet normal 0 0 -1
    outer loop
      vertex 80.8 4.5 0
      vertex 80.8 72 0
      vertex 85.3 76.5 0
    endloop
  endfacet
  facet normal 0 0 -1
    outer loop
      vertex 4.5 72 0
      vertex 0 76.5 0
      vertex 80.8 72 0
    endloop
  endfacet
  facet normal 0 1 0
    outer loop
      vertex 0 76.5 0
      vertex 0 76.5 12
      vertex 85.3 76.5 0
    endloop
  endfacet
  facet normal 0 1 0
    outer loop
      vertex 85.3 76.5 0
      vertex 0 76.5 12
      vertex 85.3 76.5 12
    endloop
  endfacet
  facet normal 0 0 1
    outer loop
      vertex 3 3 12
      vertex 0 0 12
      vertex 85.3 0 12
    endloop
  endfacet
  facet normal 0 0 1
    outer loop
      vertex 0 76.5 12
      vertex 0 0 12
      vertex 3 3 12
    endloop
  endfacet
  facet normal 0 0 1
    outer loop
      vertex 3 73.5 12
      vertex 82.3 73.5 12
      vertex 0 76.5 12
    endloop
  endfacet
  facet normal 0 0 1
    outer loop
      vertex 0 76.5 12
      vertex 3 3 12
      vertex 3 73.5 12
    endloop
  endfacet
  facet normal 0 0 1
    outer loop
      vertex 85.3 76.5 12
      vertex 82.3 73.5 12
      vertex 85.3 0 12
    endloop
  endfacet
  facet normal 0 0 1
    outer loop
      vertex 85.3 76.5 12
      vertex 0 76.5 12
      vertex 82.3 73.5 12
    endloop
  endfacet
  facet normal 0 0 1
    outer loop
      vertex 82.3 73.5 12
      vertex 82.3 3 12
      vertex 85.3 0 12
    endloop
  endfacet
  facet normal 0 0 1
    outer loop
      vertex 82.3 3 12
      vertex 3 3 12
      vertex 85.3 0 12
    endloop
  endfacet
  facet normal 1 0 0
    outer loop
      vertex 85.3 0 12
      vertex 85.3 0 0
      vertex 85.3 76.5 0
    endloop
  endfacet
  facet normal 1 0 0
    outer loop
      vertex 85.3 76.5 12
      vertex 85.3 0 12
      vertex 85.3 76.5 0
    endloop
  endfacet
  facet normal 1 0 0
    outer loop
      vertex 4.5 72 0
      vertex 4.5 72 18
      vertex 4.5 4.5 18
    endloop
  endfacet
  facet normal 1 0 0
    outer loop
      vertex 4.5 4.5 0
      vertex 4.5 72 0
      vertex 4.5 4.5 18
    endloop
  endfacet
  facet normal 0 -1 0
    outer loop
      vertex 80.8 72 0
      vertex 80.8 72 18
      vertex 4.5 72 18
    endloop
  endfacet
  facet normal 0 -1 0
    outer loop
      vertex 4.5 72 0
      vertex 80.8 72 0
      vertex 4.5 72 18
    endloop
  endfacet
  facet normal -1 0 0
    outer loop
      vertex 80.8 72 18
      vertex 80.8 72 0
      vertex 80.8 4.5 18
    endloop
  endfacet
  facet normal -1 0 0
    outer loop
      vertex 80.8 4.5 18
      vertex 80.8 72 0
      vertex 80.8 4.5 0
    endloop
  endfacet
  facet normal 0 1 0
    outer loop
      vertex 80.8 4.5 18
      vertex 80.8 4.5 0
      vertex 4.5 4.5 18
    endloop
  endfacet
  facet normal 0 1 0
    outer loop
      vertex 4.5 4.5 18
      vertex 80.8 4.5 0
      vertex 4.5 4.5 0
    endloop
  endfacet
  facet normal -1 0 0
    outer loop
      vertex 3 3 12
      vertex 3 3 18
      vertex 3 73.5 12
    endloop
  endfacet
  facet normal -1 0 0
    outer loop
      vertex 3 73.5 12
      vertex 3 3 18
      vertex 3 73.5 18
    endloop
  endfacet
  facet normal 0 -1 0
    outer loop
      vertex 3 3 18
      vertex 3 3 12
      vertex 82.3 3 12
    endloop
  endfacet
  facet normal 0 -1 0
    outer loop
      vertex 82.3 3 18
      vertex 3 3 18
      vertex 82.3 3 12
    endloop
  endfacet
  facet normal 1 0 0
    outer loop
      vertex 82.3 3 18
      vertex 82.3 3 12
      vertex 82.3 73.5 12
    endloop
  endfacet
  facet normal 1 0 0
    outer loop
      vertex 82.3 73.5 18
      vertex 82.3 3 18
      vertex 82.3 73.5 12
    endloop
  endfacet
  facet normal 0 1 0
    outer loop
      vertex 82.3 73.5 18
      vertex 82.3 73.5 12
      vertex 3 73.5 18
    endloop
  endfacet
  facet normal 0 1 0
    outer loop
      vertex 3 73.5 18
      vertex 82.3 73.5 12
      vertex 3 73.5 12
    endloop
  endfacet
  facet normal 0 0 1
    outer loop
      vertex 4.5 4.5 18
      vertex 3 3 18
      vertex 82.3 3 18
    endloop
  endfacet
  facet normal 0 0 1
    outer loop
      vertex 3 73.5 18
      vertex 3 3 18
      vertex 4.5 4.5 18
    endloop
  endfacet
  facet normal 0 0 1
    outer loop
      vertex 4.5 72 18
      vertex 80.8 72 18
      vertex 3 73.5 18
    endloop
  endfacet
  facet normal 0 0 1
    outer loop
      vertex 3 73.5 18
      vertex 4.5 4.5 18
      vertex 4.5 72 18
    endloop
  endfacet
  facet normal 0 0 1
    outer loop
      vertex 82.3 73.5 18
      vertex 80.8 72 18
      vertex 82.3 3 18
    endloop
  endfacet
  facet normal 0 0 1
    outer loop
      vertex 82.3 73.5 18
      vertex 3 73.5 18
      vertex 80.8 72 18
    endloop
  endfacet
  facet normal 0 0 1
    outer loop
      vertex 80.8 72 18
      vertex 80.8 4.5 18
      vertex 82.3 3 18
    endloop
  endfacet
  facet normal 0 0 1
    outer loop
      vertex 80.8 4.5 18
      vertex 4.5 4.5 18
      vertex 82.3 3 18
    endloop
  endfacet
endsolid OpenSCAD_Model
