solid OpenSCAD_Model
  facet normal -1 0 0
    outer loop
      vertex 0 0 0
      vertex 0 0 38
      vertex 0 76.5 0
    endloop
  endfacet
  facet normal -1 0 0
    outer loop
      vertex 0 32.75 30.3
      vertex 0 0 38
      vertex 0 76.5 38
    endloop
  endfacet
  facet normal -1 0 0
    outer loop
      vertex 0 32.75 25.3
      vertex 0 0 38
      vertex 0 32.75 30.3
    endloop
  endfacet
  facet normal -1 0 0
    outer loop
      vertex 0 36.75 30.3
      vertex 0 32.75 30.3
      vertex 0 76.5 38
    endloop
  endfacet
  facet normal -1 0 0
    outer loop
      vertex 0 76.5 0
      vertex 0 0 38
      vertex 0 32.75 25.3
    endloop
  endfacet
  facet normal -1 0 0
    outer loop
      vertex 0 76.5 0
      vertex 0 32.75 25.3
      vertex 0 36.75 25.3
    endloop
  endfacet
  facet normal -1 0 0
    outer loop
      vertex 0 37.75 25.3
      vertex 0 36.75 30.3
      vertex 0 37.75 30.3
    endloop
  endfacet
  facet normal -1 0 0
    outer loop
      vertex 0 37.75 30.3
      vertex 0 36.75 30.3
      vertex 0 76.5 38
    endloop
  endfacet
  facet normal -1 0 0
    outer loop
      vertex 0 41.75 30.3
      vertex 0 37.75 30.3
      vertex 0 76.5 38
    endloop
  endfacet
  facet normal -1 0 0
    outer loop
      vertex 0 76.5 0
      vertex 0 36.75 25.3
      vertex 0 37.75 25.3
    endloop
  endfacet
  facet normal -1 0 0
    outer loop
      vertex 0 76.5 0
      vertex 0 41.75 30.3
      vertex 0 76.5 38
    endloop
  endfacet
  facet normal -1 0 0
    outer loop
      vertex 0 41.75 25.3
      vertex 0 76.5 0
      vertex 0 37.75 25.3
    endloop
  endfacet
  facet normal -1 0 0
    outer loop
      vertex 0 41.75 30.3
      vertex 0 76.5 0
      vertex 0 41.75 25.3
    endloop
  endfacet
  facet normal -1 0 0
    outer loop
      vertex 0 36.75 30.3
      vertex 0 37.75 25.3
      vertex 0 36.75 25.3
    endloop
  endfacet
  facet normal 0 -1 0
    outer loop
      vertex 0 0 38
      vertex 0 0 0
      vertex 85.3 0 0
    endloop
  endfacet
  facet normal 0 -1 0
    outer loop
      vertex 85.3 0 38
      vertex 0 0 38
      vertex 85.3 0 0
    endloop
  endfacet
  facet normal 0 0 -1
    outer loop
      vertex 0 0 0
      vertex 0 76.5 0
      vertex 85.3 0 0
    endloop
  endfacet
  facet normal 0 0 -1
    outer loop
      vertex 85.3 0 0
      vertex 0 76.5 0
      vertex 85.3 76.5 0
    endloop
  endfacet
  facet normal 0 1 0
    outer loop
      vertex 0 76.5 0
      vertex 0 76.5 38
      vertex 85.3 76.5 0
    endloop
  endfacet
  facet normal 0 1 0
    outer loop
      vertex 85.3 76.5 0
      vertex 0 76.5 38
      vertex 85.3 76.5 38
    endloop
  endfacet
  facet normal 0 0 1
    outer loop
      vertex 3 3 38
      vertex 0 0 38
      vertex 85.3 0 38
    endloop
  endfacet
  facet normal 0 0 1
    outer loop
      vertex 0 76.5 38
      vertex 0 0 38
      vertex 3 3 38
    endloop
  endfacet
  facet normal 0 0 1
    outer loop
      vertex 3 73.5 38
      vertex 82.3 73.5 38
      vertex 0 76.5 38
    endloop
  endfacet
  facet normal 0 0 1
    outer loop
      vertex 0 76.5 38
      vertex 3 3 38
      vertex 3 73.5 38
    endloop
  endfacet
  facet normal 0 0 1
    outer loop
      vertex 85.3 76.5 38
      vertex 82.3 73.5 38
      vertex 85.3 0 38
    endloop
  endfacet
  facet normal 0 0 1
    outer loop
      vertex 85.3 76.5 38
      vertex 0 76.5 38
      vertex 82.3 73.5 38
    endloop
  endfacet
  facet normal 0 0 1
    outer loop
      vertex 82.3 73.5 38
      vertex 82.3 3 38
      vertex 85.3 0 38
    endloop
  endfacet
  facet normal 0 0 1
    outer loop
      vertex 82.3 3 38
      vertex 3 3 38
      vertex 85.3 0 38
    endloop
  endfacet
  facet normal 0 0 -1
    outer loop
      vertex 3 36.75 30.3
      vertex 3 32.75 30.3
      vertex 0 36.75 30.3
    endloop
  endfacet
  facet normal 0 0 -1
    outer loop
      vertex 0 36.75 30.3
      vertex 3 32.75 30.3
      vertex 0 32.75 30.3
    endloop
  endfacet
  facet normal 0 1 0
    outer loop
      vertex 3 32.75 30.3
      vertex 3 32.75 25.3
      vertex 0 32.75 30.3
    endloop
  endfacet
  facet normal 0 1 0
    outer loop
      vertex 0 32.75 30.3
      vertex 3 32.75 25.3
      vertex 0 32.75 25.3
    endloop
  endfacet
  facet normal 0 -1 0
    outer loop
      vertex 3 36.75 25.3
      vertex 3 36.75 30.3
      vertex 0 36.75 30.3
    endloop
  endfacet
  facet normal 0 -1 0
    outer loop
      vertex 0 36.75 25.3
      vertex 3 36.75 25.3
      vertex 0 36.75 30.3
    endloop
  endfacet
  facet normal 0 0 1
    outer loop
      vertex 3 32.75 25.3
      vertex 3 36.75 25.3
      vertex 0 36.75 25.3
    endloop
  endfacet
  facet normal 0 0 1
    outer loop
      vertex 0 32.75 25.3
      vertex 3 32.75 25.3
      vertex 0 36.75 25.3
    endloop
  endfacet
  facet normal 0 0 -1
    outer loop
      vertex 3 41.75 30.3
      vertex 3 37.75 30.3
      vertex 0 41.75 30.3
    endloop
  endfacet
  facet normal 0 0 -1
    outer loop
      vertex 0 41.75 30.3
      vertex 3 37.75 30.3
      vertex 0 37.75 30.3
    endloop
  endfacet
  facet normal 0 1 0
    outer loop
      vertex 3 37.75 30.3
      vertex 3 37.75 25.3
      vertex 0 37.75 30.3
    endloop
  endfacet
  facet normal 0 1 0
    outer loop
      vertex 0 37.75 30.3
      vertex 3 37.75 25.3
      vertex 0 37.75 25.3
    endloop
  endfacet
  facet normal 0 -1 0
    outer loop
      vertex 3 41.75 25.3
      vertex 3 41.75 30.3
      vertex 0 41.75 30.3
    endloop
  endfacet
  facet normal 0 -1 0
    outer loop
      vertex 0 41.75 25.3
      vertex 3 41.75 25.3
      vertex 0 41.75 30.3
    endloop
  endfacet
  facet normal 0 0 1
    outer loop
      vertex 3 37.75 25.3
      vertex 3 41.75 25.3
      vertex 0 41.75 25.3
    endloop
  endfacet
  facet normal 0 0 1
    outer loop
      vertex 0 37.75 25.3
      vertex 3 37.75 25.3
      vertex 0 41.75 25.3
    endloop
  endfacet
  facet normal 1 0 0
    outer loop
      vertex 85.3 0 38
      vertex 85.3 0 0
      vertex 85.3 76.5 0
    endloop
  endfacet
  facet normal 1 0 0
    outer loop
      vertex 85.3 76.5 38
      vertex 85.3 0 38
      vertex 85.3 76.5 0
    endloop
  endfacet
  facet normal 1 0 0
    outer loop
      vertex 3 10 12
      vertex 3 10 6
      vertex 3 65.5 6
    endloop
  endfacet
  facet normal 1 0 0
    outer loop
      vertex 3 73.5 38
      vertex 3 10 12
      vertex 3 65.5 12
    endloop
  endfacet
  facet normal 1 0 0
    outer loop
      vertex 3 65.5 12
      vertex 3 10 12
      vertex 3 65.5 6
    endloop
  endfacet
  facet normal 1 0 0
    outer loop
      vertex 3 73.5 38
      vertex 3 65.5 12
      vertex 3 72.5 12
    endloop
  endfacet
  facet normal 1 0 0
    outer loop
      vertex 3 73.5 6
      vertex 3 72.5 12
      vertex 3 72.5 6
    endloop
  endfacet
  facet normal 1 0 0
    outer loop
      vertex 3 73.5 38
      vertex 3 72.5 12
      vertex 3 73.5 6
    endloop
  endfacet
  facet normal 1 0 0
    outer loop
      vertex 3 41.75 25.3
      vertex 3 10 12
      vertex 3 73.5 38
    endloop
  endfacet
  facet normal 1 0 0
    outer loop
      vertex 3 32.75 25.3
      vertex 3 32.75 30.3
      vertex 3 10 12
    endloop
  endfacet
  facet normal 1 0 0
    outer loop
      vertex 3 3 38
      vertex 3 32.75 30.3
      vertex 3 73.5 38
    endloop
  endfacet
  facet normal 1 0 0
    outer loop
      vertex 3 3 38
      vertex 3 10 12
      vertex 3 32.75 30.3
    endloop
  endfacet
  facet normal 1 0 0
    outer loop
      vertex 3 32.75 30.3
      vertex 3 36.75 30.3
      vertex 3 73.5 38
    endloop
  endfacet
  facet normal 1 0 0
    outer loop
      vertex 3 41.75 30.3
      vertex 3 41.75 25.3
      vertex 3 73.5 38
    endloop
  endfacet
  facet normal 1 0 0
    outer loop
      vertex 3 32.75 25.3
      vertex 3 10 12
      vertex 3 36.75 25.3
    endloop
  endfacet
  facet normal 1 0 0
    outer loop
      vertex 3 36.75 30.3
      vertex 3 37.75 30.3
      vertex 3 73.5 38
    endloop
  endfacet
  facet normal 1 0 0
    outer loop
      vertex 3 36.75 30.3
      vertex 3 36.75 25.3
      vertex 3 37.75 30.3
    endloop
  endfacet
  facet normal 1 0 0
    outer loop
      vertex 3 37.75 30.3
      vertex 3 41.75 30.3
      vertex 3 73.5 38
    endloop
  endfacet
  facet normal 1 0 0
    outer loop
      vertex 3 37.75 25.3
      vertex 3 10 12
      vertex 3 41.75 25.3
    endloop
  endfacet
  facet normal 1 0 0
    outer loop
      vertex 3 36.75 25.3
      vertex 3 10 12
      vertex 3 37.75 25.3
    endloop
  endfacet
  facet normal 1 0 0
    outer loop
      vertex 3 3 12
      vertex 3 10 12
      vertex 3 3 38
    endloop
  endfacet
  facet normal 1 0 0
    outer loop
      vertex 3 37.75 25.3
      vertex 3 37.75 30.3
      vertex 3 36.75 25.3
    endloop
  endfacet
  facet normal 0 1 0
    outer loop
      vertex 82.3 3 38
      vertex 82.3 3 6
      vertex 81.3 3 12
    endloop
  endfacet
  facet normal 0 1 0
    outer loop
      vertex 82.3 3 38
      vertex 81.3 3 12
      vertex 3 3 38
    endloop
  endfacet
  facet normal 0 1 0
    outer loop
      vertex 74.3 3 6
      vertex 3 3 38
      vertex 74.3 3 12
    endloop
  endfacet
  facet normal 0 1 0
    outer loop
      vertex 81.3 3 12
      vertex 74.3 3 12
      vertex 3 3 38
    endloop
  endfacet
  facet normal 0 1 0
    outer loop
      vertex 3 3 12
      vertex 3 3 38
      vertex 10 3 12
    endloop
  endfacet
  facet normal 0 1 0
    outer loop
      vertex 10 3 12
      vertex 74.3 3 6
      vertex 10 3 6
    endloop
  endfacet
  facet normal 0 1 0
    outer loop
      vertex 3 3 38
      vertex 74.3 3 6
      vertex 10 3 12
    endloop
  endfacet
  facet normal 0 1 0
    outer loop
      vertex 81.3 3 12
      vertex 82.3 3 6
      vertex 81.3 3 6
    endloop
  endfacet
  facet normal -1 0 0
    outer loop
      vertex 82.3 73.5 38
      vertex 82.3 73.5 6
      vertex 82.3 3 38
    endloop
  endfacet
  facet normal -1 0 0
    outer loop
      vertex 82.3 3 38
      vertex 82.3 73.5 6
      vertex 82.3 3 6
    endloop
  endfacet
  facet normal 0 -1 0
    outer loop
      vertex 82.3 73.5 6
      vertex 82.3 73.5 38
      vertex 3 73.5 38
    endloop
  endfacet
  facet normal 0 -1 0
    outer loop
      vertex 3 73.5 6
      vertex 82.3 73.5 6
      vertex 3 73.5 38
    endloop
  endfacet
  facet normal 0 1 0
    outer loop
      vertex 3 10 6
      vertex 3 10 12
      vertex 10 10 6
    endloop
  endfacet
  facet normal 0 1 0
    outer loop
      vertex 10 10 6
      vertex 3 10 12
      vertex 10 10 12
    endloop
  endfacet
  facet normal 0 0 1
    outer loop
      vertex 3 10 12
      vertex 3 3 12
      vertex 10 3 12
    endloop
  endfacet
  facet normal 0 0 1
    outer loop
      vertex 10 10 12
      vertex 3 10 12
      vertex 10 3 12
    endloop
  endfacet
  facet normal 0 0 1
    outer loop
      vertex 10 10 6
      vertex 10 3 6
      vertex 74.3 3 6
    endloop
  endfacet
  facet normal 0 0 1
    outer loop
      vertex 74.3 65.5 6
      vertex 10 10 6
      vertex 74.3 10 6
    endloop
  endfacet
  facet normal 0 0 1
    outer loop
      vertex 74.3 10 6
      vertex 10 10 6
      vertex 74.3 3 6
    endloop
  endfacet
  facet normal 0 0 1
    outer loop
      vertex 81.3 65.5 6
      vertex 74.3 10 6
      vertex 81.3 10 6
    endloop
  endfacet
  facet normal 0 0 1
    outer loop
      vertex 82.3 3 6
      vertex 81.3 10 6
      vertex 81.3 3 6
    endloop
  endfacet
  facet normal 0 0 1
    outer loop
      vertex 82.3 73.5 6
      vertex 81.3 10 6
      vertex 82.3 3 6
    endloop
  endfacet
  facet normal 0 0 1
    outer loop
      vertex 10 72.5 6
      vertex 10 65.5 6
      vertex 82.3 73.5 6
    endloop
  endfacet
  facet normal 0 0 1
    outer loop
      vertex 3 72.5 6
      vertex 10 72.5 6
      vertex 3 73.5 6
    endloop
  endfacet
  facet normal 0 0 1
    outer loop
      vertex 3 73.5 6
      vertex 10 72.5 6
      vertex 82.3 73.5 6
    endloop
  endfacet
  facet normal 0 0 1
    outer loop
      vertex 10 65.5 6
      vertex 3 65.5 6
      vertex 10 10 6
    endloop
  endfacet
  facet normal 0 0 1
    outer loop
      vertex 10 65.5 6
      vertex 74.3 72.5 6
      vertex 82.3 73.5 6
    endloop
  endfacet
  facet normal 0 0 1
    outer loop
      vertex 10 65.5 6
      vertex 10 10 6
      vertex 74.3 72.5 6
    endloop
  endfacet
  facet normal 0 0 1
    outer loop
      vertex 81.3 65.5 6
      vertex 74.3 65.5 6
      vertex 74.3 10 6
    endloop
  endfacet
  facet normal 0 0 1
    outer loop
      vertex 81.3 72.5 6
      vertex 81.3 65.5 6
      vertex 82.3 73.5 6
    endloop
  endfacet
  facet normal 0 0 1
    outer loop
      vertex 82.3 73.5 6
      vertex 81.3 65.5 6
      vertex 81.3 10 6
    endloop
  endfacet
  facet normal 0 0 1
    outer loop
      vertex 74.3 65.5 6
      vertex 74.3 72.5 6
      vertex 10 10 6
    endloop
  endfacet
  facet normal 0 0 1
    outer loop
      vertex 74.3 72.5 6
      vertex 81.3 72.5 6
      vertex 82.3 73.5 6
    endloop
  endfacet
  facet normal 0 0 1
    outer loop
      vertex 3 10 6
      vertex 10 10 6
      vertex 3 65.5 6
    endloop
  endfacet
  facet normal 0 1 0
    outer loop
      vertex 3 72.5 6
      vertex 3 72.5 12
      vertex 10 72.5 6
    endloop
  endfacet
  facet normal 0 1 0
    outer loop
      vertex 10 72.5 6
      vertex 3 72.5 12
      vertex 10 72.5 12
    endloop
  endfacet
  facet normal 0 0 1
    outer loop
      vertex 3 72.5 12
      vertex 3 65.5 12
      vertex 10 65.5 12
    endloop
  endfacet
  facet normal 0 0 1
    outer loop
      vertex 10 72.5 12
      vertex 3 72.5 12
      vertex 10 65.5 12
    endloop
  endfacet
  facet normal 0 -1 0
    outer loop
      vertex 3 65.5 12
      vertex 3 65.5 6
      vertex 10 65.5 6
    endloop
  endfacet
  facet normal 0 -1 0
    outer loop
      vertex 10 65.5 12
      vertex 3 65.5 12
      vertex 10 65.5 6
    endloop
  endfacet
  facet normal 1 0 0
    outer loop
      vertex 10 3 12
      vertex 10 3 6
      vertex 10 10 6
    endloop
  endfacet
  facet normal 1 0 0
    outer loop
      vertex 10 10 12
      vertex 10 3 12
      vertex 10 10 6
    endloop
  endfacet
  facet normal -1 0 0
    outer loop
      vertex 74.3 3 6
      vertex 74.3 3 12
      vertex 74.3 10 6
    endloop
  endfacet
  facet normal -1 0 0
    outer loop
      vertex 74.3 10 6
      vertex 74.3 3 12
      vertex 74.3 10 12
    endloop
  endfacet
  facet normal 0 0 1
    outer loop
      vertex 74.3 10 12
      vertex 74.3 3 12
      vertex 81.3 3 12
    endloop
  endfacet
  facet normal 0 0 1
    outer loop
      vertex 81.3 10 12
      vertex 74.3 10 12
      vertex 81.3 3 12
    endloop
  endfacet
  facet normal 1 0 0
    outer loop
      vertex 81.3 3 12
      vertex 81.3 3 6
      vertex 81.3 10 6
    endloop
  endfacet
  facet normal 1 0 0
    outer loop
      vertex 81.3 10 12
      vertex 81.3 3 12
      vertex 81.3 10 6
    endloop
  endfacet
  facet normal 1 0 0
    outer loop
      vertex 10 65.5 12
      vertex 10 65.5 6
      vertex 10 72.5 6
    endloop
  endfacet
  facet normal 1 0 0
    outer loop
      vertex 10 72.5 12
      vertex 10 65.5 12
      vertex 10 72.5 6
    endloop
  endfacet
  facet normal 0 1 0
    outer loop
      vertex 74.3 10 6
      vertex 74.3 10 12
      vertex 81.3 10 6
    endloop
  endfacet
  facet normal 0 1 0
    outer loop
      vertex 81.3 10 6
      vertex 74.3 10 12
      vertex 81.3 10 12
    endloop
  endfacet
  facet normal 0 1 0
    outer loop
      vertex 74.3 72.5 6
      vertex 74.3 72.5 12
      vertex 81.3 72.5 6
    endloop
  endfacet
  facet normal 0 1 0
    outer loop
      vertex 81.3 72.5 6
      vertex 74.3 72.5 12
      vertex 81.3 72.5 12
    endloop
  endfacet
  facet normal -1 0 0
    outer loop
      vertex 74.3 65.5 6
      vertex 74.3 65.5 12
      vertex 74.3 72.5 6
    endloop
  endfacet
  facet normal -1 0 0
    outer loop
      vertex 74.3 72.5 6
      vertex 74.3 65.5 12
      vertex 74.3 72.5 12
    endloop
  endfacet
  facet normal 0 -1 0
    outer loop
      vertex 74.3 65.5 12
      vertex 74.3 65.5 6
      vertex 81.3 65.5 6
    endloop
  endfacet
  facet normal 0 -1 0
    outer loop
      vertex 81.3 65.5 12
      vertex 74.3 65.5 12
      vertex 81.3 65.5 6
    endloop
  endfacet
  facet normal 1 0 0
    outer loop
      vertex 81.3 65.5 12
      vertex 81.3 65.5 6
      vertex 81.3 72.5 6
    endloop
  endfacet
  facet normal 1 0 0
    outer loop
      vertex 81.3 72.5 12
      vertex 81.3 65.5 12
      vertex 81.3 72.5 6
    endloop
  endfacet
  facet normal 0 0 1
    outer loop
      vertex 74.3 72.5 12
      vertex 74.3 65.5 12
      vertex 81.3 65.5 12
    endloop
  endfacet
  facet normal 0 0 1
    outer loop
      vertex 81.3 72.5 12
      vertex 74.3 72.5 12
      vertex 81.3 65.5 12
    endloop
  endfacet
endsolid OpenSCAD_Model
